<svg xmlns="http://www.w3.org/2000/svg" width="90" height="90"><path fill="#fff" d="M49.645 6.817C52.877 3.017 58.34.19 62.848 0c.575 5.279-1.541 10.565-4.669 14.374-3.133 3.802-8.261 6.764-13.294 6.369-.684-5.165 1.851-10.551 4.76-13.926zm25.646 72.01c-3.741 5.485-7.61 10.938-13.718 11.053-6.012.114-7.938-3.571-14.799-3.571-6.866 0-9.016 3.457-14.69 3.686-5.897.222-10.382-5.926-14.152-11.387-7.703-11.168-13.585-31.576-5.677-45.35 3.916-6.84 10.934-11.167 18.537-11.282 5.792-.107 11.263 3.917 14.799 3.917 3.544 0 10.185-4.831 17.165-4.122 2.922.121 11.123 1.181 16.391 8.912-.417.274-9.789 5.745-9.676 17.141.114 13.614 11.891 18.137 12.029 18.199-.108.32-1.884 6.459-6.209 12.804z"/></svg>