<svg xmlns="http://www.w3.org/2000/svg" viewBox="0 0 289.79 289.79"><path d="M13.424 13.689c-.692 2.431-1.165 5.053-1.165 8.048v246.356c0 2.95.473 5.544 1.138 7.948l138.267-130.993L13.424 13.689z" fill="#349886"/><path d="M205.621 93.921L44.185 4.121C37.749.207 31.413-.785 26.06.58l138.85 131.931 40.711-38.59z" fill="#3db39e"/><path d="M265.142 127.031l-43.088-23.97-44.135 41.804 44.954 42.733 41.923-23.023c20.465-11.662 13-30.434.346-37.544z" fill="#f4b459"/><path d="M25.65 289.095c5.435 1.52 11.926.61 18.526-3.405l161.928-88.907-41.449-39.383L25.65 289.095z" fill="#e2574c"/></svg>