<svg xmlns="http://www.w3.org/2000/svg" width="24" height="16"><path fill="#9A9FBF" d="M12.355 5.332L4.548.545C3.975.196 3.392.021 2.809.021 1.413.021 0 1.115 0 3.205V6h2V3.204c0-.749.314-1.184.809-1.184.204 0 .438.074.694.229l7.815 4.792c.879.533.924 1.406.044 1.939l-7.859 4.79c-.256.157-.491.23-.695.23C2.314 14 2 13.566 2 12.818v-.793-.024H0V12.818C0 14.907 1.413 16 2.808 16c.583 0 1.167-.175 1.735-.521l7.86-4.79C13.416 10.074 14 9.107 14 8.038c.001-1.086-.599-2.072-1.645-2.706z"/><path fill="#9A9FBF" d="M0 8h2v2H0zM22.355 5.332L14.548.545c-.574-.349-1.157-.524-1.74-.524C11.413.021 10 1.115 10 3.205v2.08l2 1.343v-.616-2.807c0-.749.314-1.184.809-1.184.204 0 .438.074.694.229l7.815 4.792c.879.533.924 1.406.044 1.939l-7.859 4.79c-.256.156-.491.229-.695.229-.494 0-.808-.434-.808-1.182v-.793-2.311c-.479.438-.969.879-1 .89-.025.009-.476.189-1 .401V12.818C10 14.907 11.413 16 12.808 16c.583 0 1.167-.175 1.735-.521l7.86-4.79C23.416 10.074 24 9.107 24 8.038c.001-1.086-.599-2.072-1.645-2.706z"/></svg>