<svg xmlns="http://www.w3.org/2000/svg" width="25" height="16"><path fill-rule="evenodd" clip-rule="evenodd" fill="#9A9FBF" d="M1 5.001c-.553 0-1 .384-1 .857v4.285C0 10.617.447 11 1 11c.552 0 1-.384 1-.857V5.858c0-.473-.448-.857-1-.857z"/><path fill="#9A9FBF" d="M11 7h2v2h-2z"/><path fill="#9A9FBF" d="M11.002 11v2.44L6 10.531V5.489l5.002-2.926V5h2V1.581C13.002.58 12.563 0 11.87 0c-.285 0-.613.099-.972.307L4 4.342v7.34l6.898 4.012c.359.207.687.306.973.306.692 0 1.131-.58 1.131-1.579v-3.419V11h-2zM23.586 3.746l-2.828 2.828-2.828-2.828-1.414 1.414 2.828 2.828-2.828 2.829 1.414 1.413 2.828-2.828 2.828 2.828L25 10.817l-2.828-2.829L25 5.16z"/></svg>