<svg xmlns="http://www.w3.org/2000/svg" width="24" height="16"><path fill="#9A9FBF" d="M11.645 5.332L19.452.545c.574-.349 1.157-.524 1.74-.524C22.587.021 24 1.115 24 3.205V6h-2V3.204c0-.749-.314-1.184-.809-1.184-.204 0-.438.074-.694.229l-7.815 4.792c-.879.533-.924 1.406-.044 1.939l7.859 4.79c.256.157.491.23.694.23.495 0 .809-.434.809-1.182v-.793-.024h2V12.818C24 14.907 22.588 16 21.191 16c-.582 0-1.166-.175-1.734-.521l-7.86-4.79C10.584 10.074 10 9.107 10 8.038c-.001-1.086.599-2.072 1.645-2.706z"/><path fill="#9A9FBF" d="M22 8h2v2h-2zM1.645 5.332L9.452.545c.574-.349 1.157-.524 1.74-.524C12.587.021 14 1.115 14 3.205v2.08l-2 1.343v-.616-2.807c0-.749-.314-1.184-.809-1.184-.204 0-.438.074-.694.229L2.682 7.042c-.879.533-.924 1.405-.044 1.938l7.859 4.79c.256.157.491.23.695.23.494 0 .808-.434.808-1.182v-.793-2.311c.479.438.969.879 1 .89.025.009.477.189 1 .401V12.818C14 14.907 12.587 16 11.192 16c-.583 0-1.167-.175-1.735-.521l-7.86-4.79C.584 10.074 0 9.107 0 8.038c-.001-1.086.599-2.072 1.645-2.706z"/></svg>