<svg xmlns="http://www.w3.org/2000/svg" width="23" height="15"><g fill="#1ed760"><path d="M13.166 3.426c-.413.574-1.02 1.363-1.662 2.3l-.006-.008c-.646-.94-1.256-1.731-1.67-2.308-.889-1.24-2.178-1.474-2.861-1.417H4.016v2l3.123-.007c.035-.005.621-.027 1.064.59A299.39 299.39 0 0110.277 7.5a299.39 299.39 0 01-2.074 2.924c-.443.617-1.029.595-1.064.59l-3.123-.007v2h2.95c.684.058 1.973-.177 2.862-1.417.414-.576 1.023-1.367 1.669-2.308l.006-.009c.642.936 1.25 1.727 1.663 2.301.891 1.238 2.18 1.474 2.863 1.416h2.949v-2l-3.123.008c-.035.004-.621.027-1.064-.591A313.528 313.528 0 0112.728 7.5a283.844 283.844 0 012.063-2.907c.443-.618 1.029-.595 1.064-.59l3.123.007v-2h-2.949c-.683-.058-1.972.177-2.863 1.416zM0 11h2v2H0zM18.985 0v5.966L23 2.983zM0 2h2v2H0zM18.985 15L23 12.017l-4.015-2.983z"/></g></svg>