<svg xmlns="http://www.w3.org/2000/svg" width="26" height="16"><path fill-rule="evenodd" clip-rule="evenodd" fill="#9A9FBF" d="M1 5.001c-.553 0-1 .384-1 .857v4.285C0 10.617.447 11 1 11c.552 0 1-.384 1-.857V5.858c0-.473-.448-.857-1-.857z"/><g fill="#9A9FBF"><path d="M11 7h2v2h-2z"/><path d="M11.002 11v2.44L6 10.531V5.489l5.002-2.926V5h2V1.581C13.002.58 12.563 0 11.87 0c-.285 0-.613.099-.972.307L4 4.342v7.34l6.898 4.012c.359.207.687.306.973.306.692 0 1.131-.58 1.131-1.579v-3.419V11h-2z"/></g><g fill-rule="evenodd" clip-rule="evenodd" fill="#9A9FBF"><path d="M22.373 16.004C24.632 13.862 26 11.094 26 7.995 26 4.904 24.615 2.142 22.365 0l-1.062 1.086c1.98 1.82 3.235 4.246 3.235 6.909 0 2.659-1.251 5.081-3.227 6.901l1.062 1.108z"/><path d="M19.5 13.797c1.756-1.511 2.815-3.521 2.815-5.802 0-2.239-1.066-4.274-2.767-5.778l-.946 1.146c1.404 1.188 2.295 2.824 2.295 4.633 0 1.845-.926 3.511-2.381 4.703l.984 1.098z"/><path d="M16.81 11.416c1.115-.841 1.815-2.063 1.815-3.422 0-1.377-.72-2.613-1.86-3.455l-.755 1.296c.722.521 1.18 1.294 1.18 2.157 0 .951-.256 1.812-1.108 2.327l.728 1.097z"/></g></svg>